<?xml version="1.0" standalone="no"?>
<!DOCTYPE svg PUBLIC "-//W3C//DTD SVG 20010904//EN"
 "http://www.w3.org/TR/2001/REC-SVG-20010904/DTD/svg10.dtd">
<svg version="1.0" xmlns="http://www.w3.org/2000/svg"
 width="1508.000000pt" height="227.000000pt" viewBox="0 0 1508.000000 227.000000"
 preserveAspectRatio="xMidYMid meet">

<g transform="translate(0.000000,227.000000) scale(0.100000,-0.100000)"
fill="#000000" stroke="none">
<path d="M1038 2259 c-168 -14 -354 -77 -506 -171 -113 -70 -291 -245 -356
-350 -226 -366 -226 -842 0 -1206 64 -103 225 -264 335 -336 200 -130 399
-188 639 -187 181 1 332 36 490 116 76 38 146 83 173 109 8 8 17 13 20 10 3
-3 51 41 106 97 70 70 100 107 96 118 -3 9 6 0 21 -19 49 -64 189 -194 261
-243 303 -202 664 -247 1013 -125 176 61 316 153 454 298 133 141 214 289 268
490 29 107 36 352 14 477 -29 166 -102 338 -196 464 -325 434 -918 587 -1397
360 -149 -71 -337 -218 -403 -314 l-22 -32 -106 106 c-115 114 -185 166 -308
228 -182 91 -385 129 -596 110z m196 -754 c105 -28 154 -70 272 -236 l106
-150 -26 -32 c-96 -123 -186 -228 -211 -250 -125 -104 -308 -111 -454 -17
-108 70 -164 178 -164 315 0 182 107 321 281 366 84 22 123 23 196 4z m1789 0
c128 -27 222 -100 275 -213 24 -50 27 -70 27 -157 0 -93 -2 -105 -32 -166 -56
-114 -155 -185 -291 -209 -105 -18 -219 15 -299 88 -25 24 -223 294 -223 306
0 9 208 256 236 279 57 47 146 82 219 86 11 0 51 -6 88 -14z"/>
<path d="M5700 1265 c0 -365 2 -435 14 -435 11 0 15 36 17 188 4 181 5 189 32
244 51 103 143 162 257 162 114 0 206 -59 257 -162 27 -55 28 -63 32 -244 2
-152 6 -188 17 -188 11 0 14 34 14 185 0 161 -3 191 -20 239 -26 69 -83 134
-151 171 -49 27 -62 30 -149 30 -79 0 -102 -4 -136 -22 -43 -23 -134 -107
-134 -124 0 -5 -4 -9 -10 -9 -6 0 -10 73 -10 200 0 171 -2 200 -15 200 -13 0
-15 -55 -15 -435z"/>
<path d="M10320 1630 c0 -63 2 -70 20 -70 18 0 20 7 20 70 0 63 -2 70 -20 70
-18 0 -20 -7 -20 -70z"/>
<path d="M12000 1386 c0 -353 0 -354 -73 -433 -56 -61 -125 -93 -201 -93 -78
0 -124 15 -182 59 -132 101 -150 286 -39 409 74 82 180 118 274 92 31 -8 47
-8 54 -1 21 21 -11 34 -92 39 -112 6 -168 -15 -247 -93 -77 -76 -98 -132 -92
-244 7 -124 74 -222 188 -274 69 -32 188 -30 260 4 65 31 132 96 163 159 21
43 22 57 25 368 3 319 3 322 -17 322 -21 0 -21 -4 -21 -314z"/>
<path d="M7947 1666 c-57 -21 -104 -62 -137 -119 l-30 -52 0 -332 c0 -283 2
-333 14 -333 13 0 15 50 18 323 l3 323 25 49 c80 157 297 160 387 7 l28 -47 3
-327 c3 -317 4 -328 23 -328 18 0 19 9 19 325 0 367 0 365 72 431 94 86 235
77 316 -21 49 -60 52 -87 52 -424 0 -304 0 -311 20 -311 20 0 20 7 20 308 0
350 -5 384 -68 454 -113 126 -312 114 -408 -23 l-26 -38 -32 42 c-50 65 -113
99 -193 103 -43 3 -82 -1 -106 -10z"/>
<path d="M13741 1653 c-19 -40 -362 -796 -368 -810 -3 -8 3 -13 18 -13 21 0
32 19 93 155 l69 155 200 -2 200 -3 70 -152 c54 -118 74 -153 88 -153 11 0 19
4 19 8 0 5 -79 184 -176 398 -97 214 -182 402 -188 417 l-12 28 -13 -28z m103
-271 c47 -107 86 -198 86 -203 0 -5 -78 -9 -180 -9 -99 0 -180 2 -180 4 0 3
34 80 76 173 42 92 83 183 91 202 8 18 16 32 17 30 2 -2 42 -91 90 -197z"/>
<path d="M14537 1670 c-108 -28 -230 -128 -281 -231 -81 -167 -47 -360 85
-490 173 -170 439 -170 610 0 211 211 149 557 -124 691 -59 29 -79 33 -160 36
-50 2 -109 -1 -130 -6z m253 -53 c78 -29 189 -140 218 -220 43 -113 38 -227
-14 -329 -33 -64 -111 -140 -181 -175 -53 -26 -67 -28 -168 -28 -101 0 -114 2
-167 29 -31 16 -79 51 -107 79 -158 157 -158 397 1 555 115 114 264 146 418
89z"/>
<path d="M4910 1650 c0 -19 7 -20 150 -20 l150 0 0 -400 c0 -393 0 -400 20
-400 20 0 20 7 20 400 l0 400 150 0 c143 0 150 1 150 20 0 20 -7 20 -320 20
-313 0 -320 0 -320 -20z"/>
<path d="M12670 1251 l0 -421 114 0 c62 0 138 5 167 10 128 24 252 119 307
237 24 53 27 69 27 173 0 110 -2 119 -32 181 -41 83 -121 159 -210 202 -66 31
-74 32 -220 35 l-153 4 0 -421z m372 341 c78 -38 138 -100 177 -182 23 -48 26
-68 26 -160 0 -99 -2 -110 -32 -171 -39 -79 -102 -140 -181 -177 -51 -24 -71
-27 -189 -30 l-133 -4 0 382 0 382 133 -4 c127 -3 136 -4 199 -36z"/>
<path d="M6760 1451 c-94 -31 -186 -116 -214 -198 -9 -26 -16 -79 -16 -118 0
-60 5 -82 30 -133 59 -117 153 -176 285 -177 67 0 89 4 136 27 67 34 108 73
91 90 -8 8 -20 3 -45 -19 -55 -49 -115 -66 -201 -61 -111 7 -182 55 -239 162
-31 59 -31 174 1 234 30 55 91 115 148 143 125 60 298 -2 365 -132 l19 -39
-210 0 c-203 0 -210 -1 -210 -20 0 -19 7 -20 230 -20 262 0 249 -5 206 85 -29
62 -92 126 -154 156 -51 24 -176 35 -222 20z"/>
<path d="M10057 1440 c-76 -29 -132 -82 -169 -158 l-33 -67 -3 -192 c-4 -188
-3 -193 16 -193 20 0 21 7 24 198 3 179 5 201 25 237 44 84 126 144 216 160
22 4 37 13 37 21 0 20 -55 17 -113 -6z"/>
<path d="M10789 1447 c-84 -32 -148 -88 -191 -170 -19 -35 -23 -58 -23 -137 0
-87 3 -100 30 -149 66 -119 193 -184 327 -167 64 8 81 17 72 39 -4 12 -11 14
-31 6 -42 -16 -154 -10 -200 10 -98 45 -167 153 -167 261 1 253 292 377 482
205 77 -69 87 -103 90 -322 3 -162 6 -193 19 -193 12 0 14 29 11 203 -3 197
-4 203 -30 253 -30 58 -88 113 -150 145 -54 28 -184 36 -239 16z"/>
<path d="M9002 1253 c3 -173 6 -203 23 -238 28 -57 88 -113 153 -143 139 -63
326 -11 403 113 l19 30 0 -81 c0 -44 -7 -103 -15 -131 -19 -64 -80 -134 -147
-167 -93 -46 -235 -30 -304 35 -18 16 -23 17 -32 6 -15 -18 16 -48 83 -79 69
-31 190 -32 256 -1 58 26 123 84 154 137 37 65 45 140 45 438 0 267 -1 278
-19 278 -18 0 -20 -10 -23 -182 -3 -181 -3 -184 -33 -236 -51 -93 -129 -142
-238 -150 -60 -4 -73 -2 -132 27 -37 18 -79 49 -99 73 -57 66 -66 109 -66 300
0 145 -2 168 -16 168 -13 0 -15 -24 -12 -197z"/>
<path d="M10320 1140 c0 -303 0 -310 20 -310 20 0 20 7 20 310 0 303 0 310
-20 310 -20 0 -20 -7 -20 -310z"/>
</g>
</svg>
